<svg width="22" height="22" viewBox="0 0 22 22" fill="none" xmlns="http://www.w3.org/2000/svg">
<path d="M4.95003 1.92499H17.05C18.0583 1.92499 18.8833 2.74999 18.8833 3.75832V5.77499C18.8833 6.50832 18.425 7.42499 17.9667 7.88332L14.025 11.3667C13.475 11.825 13.1083 12.7417 13.1083 13.475V17.4167C13.1083 17.9667 12.7417 18.7 12.2833 18.975L11 19.8C9.80835 20.5333 8.15837 19.7083 8.15837 18.2417V13.3833C8.15837 12.7417 7.7917 11.9167 7.42503 11.4583L3.9417 7.79165C3.48337 7.33332 3.1167 6.50832 3.1167 5.95832V3.84999C3.1167 2.74999 3.9417 1.92499 4.95003 1.92499Z" stroke="white" stroke-width="2" stroke-miterlimit="10" stroke-linecap="round" stroke-linejoin="round"/>
<path d="M10.0192 1.92499L5.5 9.16665" stroke="white" stroke-width="2" stroke-miterlimit="10" stroke-linecap="round" stroke-linejoin="round"/>
</svg>
