<svg width="85" height="18" viewBox="0 0 85 18" fill="none" xmlns="http://www.w3.org/2000/svg">
<path d="M15.2127 6.12891H11.6353C11.57 5.66607 11.4366 5.25497 11.2351 4.8956C11.0336 4.53078 10.775 4.22041 10.4592 3.96449C10.1433 3.70857 9.77853 3.51255 9.3647 3.37642C8.95632 3.24029 8.51255 3.17223 8.03338 3.17223C7.16761 3.17223 6.41347 3.38731 5.77095 3.81747C5.12843 4.24219 4.63021 4.86293 4.27628 5.67969C3.92235 6.491 3.74538 7.47656 3.74538 8.63636C3.74538 9.82883 3.92235 10.8307 4.27628 11.642C4.63565 12.4534 5.1366 13.0659 5.77912 13.4798C6.42164 13.8936 7.16489 14.1005 8.00888 14.1005C8.4826 14.1005 8.92093 14.0379 9.32386 13.9126C9.73224 13.7874 10.0943 13.605 10.4102 13.3654C10.726 13.1204 10.9873 12.8236 11.1942 12.4751C11.4066 12.1267 11.5536 11.7292 11.6353 11.2827L15.2127 11.299C15.1201 12.0668 14.8887 12.8073 14.5185 13.5206C14.1536 14.2285 13.6609 14.8628 13.0401 15.4237C12.4248 15.979 11.6897 16.4201 10.8349 16.7468C9.98544 17.0681 9.02438 17.2287 7.9517 17.2287C6.45975 17.2287 5.12571 16.8911 3.94957 16.2159C2.77888 15.5407 1.85322 14.5633 1.17259 13.2837C0.497396 12.0041 0.159801 10.455 0.159801 8.63636C0.159801 6.81226 0.502841 5.26042 1.18892 3.98082C1.875 2.70123 2.80611 1.72656 3.98224 1.05682C5.15838 0.381628 6.48153 0.0440335 7.9517 0.0440335C8.92093 0.0440335 9.81937 0.18016 10.647 0.452414C11.4801 0.724668 12.2179 1.12216 12.8604 1.64489C13.503 2.16217 14.0257 2.79652 14.4286 3.54794C14.837 4.29936 15.0984 5.15968 15.2127 6.12891ZM20.3175 17H16.5277L22.3022 0.272727H26.8597L32.6261 17H28.8363L24.6463 4.09517H24.5156L20.3175 17ZM20.0806 10.4251H29.0323V13.1857H20.0806V10.4251ZM34.6394 17V0.272727H41.2388C42.5021 0.272727 43.5802 0.498697 44.4732 0.950639C45.3716 1.39713 46.055 2.03149 46.5233 2.85369C46.997 3.67045 47.2338 4.63151 47.2338 5.73686C47.2338 6.84766 46.9943 7.80327 46.5151 8.60369C46.0359 9.39867 45.3417 10.0085 44.4324 10.4332C43.5285 10.858 42.434 11.0703 41.149 11.0703H36.7303V8.22798H40.5772C41.2524 8.22798 41.8133 8.13542 42.2598 7.95028C42.7063 7.76515 43.0384 7.48745 43.2562 7.11719C43.4795 6.74692 43.5911 6.28681 43.5911 5.73686C43.5911 5.18146 43.4795 4.71319 43.2562 4.33203C43.0384 3.95088 42.7035 3.66229 42.2516 3.46626C41.8051 3.2648 41.2415 3.16406 40.5609 3.16406H38.176V17H34.6394ZM43.6728 9.38778L47.8301 17H43.926L39.8585 9.38778H43.6728Z" fill="white"/>
<path d="M55.0564 17V0.272727H61.7538C62.9844 0.272727 64.0108 0.455137 64.833 0.819957C65.6552 1.18478 66.2732 1.69117 66.6871 2.33913C67.1009 2.98165 67.3078 3.72218 67.3078 4.56072C67.3078 5.21413 67.1771 5.78859 66.9157 6.28409C66.6544 6.77415 66.295 7.17708 65.8376 7.4929C65.3857 7.80327 64.8684 8.02379 64.2858 8.15447V8.31783C64.9229 8.34505 65.5191 8.52474 66.0745 8.85689C66.6353 9.18904 67.09 9.65459 67.4385 10.2536C67.787 10.8471 67.9612 11.5549 67.9612 12.3771C67.9612 13.2647 67.7407 14.0569 67.2996 14.7539C66.864 15.4454 66.2188 15.9927 65.3639 16.3956C64.509 16.7985 63.4554 17 62.203 17H55.0564ZM58.593 14.1087H61.4761C62.4617 14.1087 63.1804 13.9208 63.6324 13.5451C64.0843 13.1639 64.3103 12.6576 64.3103 12.0259C64.3103 11.5631 64.1987 11.1547 63.9754 10.8008C63.7522 10.4469 63.4336 10.1692 63.0198 9.96768C62.6114 9.76622 62.1241 9.66548 61.5578 9.66548H58.593V14.1087ZM58.593 7.27237H61.2148C61.6994 7.27237 62.1295 7.18797 62.5052 7.01918C62.8864 6.84493 63.1859 6.59991 63.4037 6.28409C63.6269 5.96828 63.7385 5.58984 63.7385 5.14879C63.7385 4.54439 63.5235 4.05705 63.0933 3.68679C62.6686 3.31652 62.0642 3.13139 61.2801 3.13139H58.593V7.27237ZM73.5785 0.272727L76.9517 5.97372H77.0824L80.4719 0.272727H84.4659L79.3612 8.63636L84.5803 17H80.5128L77.0824 11.2908H76.9517L73.5213 17H69.4702L74.7056 8.63636L69.5682 0.272727H73.5785Z" fill="#FFA51F"/>
</svg>
