<svg width="22" height="22" viewBox="0 0 22 22" fill="none" xmlns="http://www.w3.org/2000/svg">
<path d="M6.87496 4.58334H15.125C15.6933 4.58334 16.1975 4.60168 16.6466 4.66584C19.0575 4.93168 19.7083 6.06834 19.7083 9.16668V12.8333C19.7083 15.9317 19.0575 17.0683 16.6466 17.3342C16.1975 17.3983 15.6933 17.4167 15.125 17.4167H6.87496C6.30663 17.4167 5.80246 17.3983 5.35329 17.3342C2.94246 17.0683 2.29163 15.9317 2.29163 12.8333V9.16668C2.29163 6.06834 2.94246 4.93168 5.35329 4.66584C5.80246 4.60168 6.30663 4.58334 6.87496 4.58334Z" stroke="white" stroke-width="2" stroke-linecap="round" stroke-linejoin="round"/>
<path d="M4.125 1.83334H17.875" stroke="white" stroke-width="2" stroke-linecap="round" stroke-linejoin="round"/>
<path d="M4.58337 20.1667H18.3334" stroke="white" stroke-width="2" stroke-linecap="round" stroke-linejoin="round"/>
</svg>
